<svg width="199" height="105" viewBox="0 0 199 105" fill="none" xmlns="http://www.w3.org/2000/svg">
<path d="M54.8414 25.6616C54.8414 18.4203 57.3073 11.8578 61.7822 7.19612C66.2116 2.53448 72.5131 0 79.4082 0C86.897 0 90.824 3.03233 93.3811 0.362069C93.3811 3.12284 93.3811 19.0539 93.3811 19.0539C93.3811 19.0539 88.7692 10.8621 79.4082 10.8621C75.4812 10.8621 72.1021 12.3556 69.5906 15.1616C67.1705 17.8772 65.8463 21.5884 65.8463 25.6616C65.8463 29.7349 67.1705 33.4461 69.5906 36.1616C72.1021 38.9677 75.4812 40.4612 79.4082 40.4612C89.0888 40.4612 93.3811 32.2694 93.3811 32.2694V47.9289C93.3811 47.9289 87.3993 51.3233 79.4082 51.3233C72.5131 51.3233 66.2116 48.7888 61.7822 44.1272C57.3073 39.4655 54.8414 32.903 54.8414 25.6616ZM155.3 90.2457L152.972 103.688H120.048C120.048 103.688 122.469 99.8405 122.469 93.9569V82.8233C121.692 88.3448 119.181 93.4138 115.117 97.3966C110.231 102.33 103.747 105 96.8059 105C89.9107 105 83.3809 102.33 78.4949 97.4871C74.5679 93.5948 72.0564 88.6616 71.2345 83.3211V94.0022C71.2345 99.9763 73.609 103.733 73.609 103.733H57.3986C57.3986 103.733 57.3073 99.7953 54.2022 94.5L43.0603 74.903V94.0022C43.0603 99.5237 45.4348 103.733 45.4348 103.733H29.3157C29.3157 103.733 29.4071 100.112 26.1193 94.6358L9.0413 65.3082C4.88596 58.4741 0 54.944 0 54.944H18.4022C18.4022 54.944 18.2653 58.2026 21.5987 64.3125L32.1012 83.1853V64.6746C32.1012 59.0172 29.7267 54.944 29.7267 54.944H46.5764C46.5764 54.944 46.8047 59.1078 49.7728 64.3125L60.2754 83.1853V64.0409C60.047 58.4289 57.9465 55.0797 57.9009 54.944H73.7003C73.7003 54.944 71.3258 59.0172 71.3258 64.6746V75.3556C72.1478 70.0151 74.6592 65.0819 78.5863 61.1897C83.4722 56.347 89.9564 53.6767 96.8972 53.6767C103.792 53.6767 110.322 56.347 115.208 61.1897C119.226 65.1724 121.784 70.2866 122.56 75.7629V64.6746C122.56 59.0172 120.185 54.944 120.185 54.944H135.985C135.985 54.944 133.61 59.0172 133.61 64.6746V92.8254H145.711C151.008 92.8254 155.3 90.2457 155.3 90.2457ZM111.692 79.3384C111.692 71.1918 105.025 64.5841 96.8059 64.5841C88.5865 64.5841 81.9197 71.1918 81.9197 79.3384C81.9197 87.4849 88.5865 94.0927 96.8059 94.0927C105.025 94.0927 111.692 87.4397 111.692 79.3384ZM21.3247 50.056H54.2478L56.5766 36.6142C56.5766 36.6142 52.4213 39.1487 46.8047 39.1487H34.7497V31.1379H41.9644C48.2659 31.1379 51.7363 33.5366 51.7363 33.5366L51.782 17.8772C51.782 17.8772 48.0833 20.2306 41.9644 20.2306H34.7497V12.1746H46.8504C52.6496 12.1746 56.6223 14.7543 56.6223 14.7543L54.2935 1.26724H21.416C21.416 1.26724 23.7905 5.34052 23.7905 10.9978V40.3254C23.7448 46.209 21.3247 50.056 21.3247 50.056ZM154.478 54.944C154.478 54.944 156.899 58.7909 156.899 64.6746V94.0022C156.899 99.6595 154.524 103.733 154.524 103.733H170.324C170.324 103.733 167.949 99.6595 167.949 94.0022V84.7694H173.063C178.269 84.7694 180.324 87.0323 180.324 87.0323L189.639 71.056C189.639 71.056 183.931 73.9073 177.995 73.9073H167.903V65.8513H184.068C189.319 65.8513 191.329 68.1142 191.329 68.1142L199 54.944H154.478ZM97.3082 40.3254V10.9978C97.3082 5.34052 94.9337 1.26724 94.9337 1.26724L110.779 1.3125C110.779 1.3125 108.359 5.15948 108.359 10.9978V20.1853H124.478V10.9978C124.478 5.34052 122.103 1.26724 122.103 1.26724L137.948 1.3125C137.948 1.3125 135.528 5.11422 135.528 10.9978V22.3125C136.35 16.8815 138.862 11.903 142.834 7.96552C147.629 3.12285 154.113 0.452586 161.054 0.452586C167.949 0.452586 174.479 3.12285 179.365 7.96552C184.251 12.8082 186.945 19.2349 186.945 26.1142C186.945 32.9483 184.251 39.4203 179.365 44.2629C174.479 49.1056 167.995 51.7759 161.054 51.7759C154.159 51.7759 147.629 49.1056 142.743 44.2629C138.77 40.3254 136.259 35.347 135.437 29.9159V40.3254C135.437 45.9828 137.811 50.056 137.811 50.056L121.966 50.0108C121.966 50.0108 124.386 46.1638 124.386 40.2802V31.1379H108.267V40.3254C108.267 45.9828 110.642 50.1013 110.642 50.1013L94.7967 50.056C94.888 50.056 97.3082 46.209 97.3082 40.3254ZM146.122 26.1142C146.122 34.2608 152.789 40.8685 161.008 40.8685C169.228 40.8685 175.894 34.2608 175.894 26.1142C175.894 17.9677 169.228 11.3599 161.008 11.3599C152.835 11.3599 146.122 17.9677 146.122 26.1142Z" fill="#F8EDEA"/>
</svg>
